<svg height="512" viewBox="0 0 44 56" width="512" xmlns="http://www.w3.org/2000/svg"><g id="Page-1" fill="none" fill-rule="evenodd"><g id="021---Paper-Waste" fill="rgb(0,0,0)" fill-rule="nonzero"><path id="Shape" d="m29 45.586 3.586-3.586h-3.086c-.2761424 0-.5.2238576-.5.5z"/><rect id="Rectangle-path" height="2" rx=".5" width="32.001" x="6" y="54"/><rect id="Rectangle-path" height="2" rx=".5" width="44.001" y="8"/><path id="Shape" d="m30 1c0-.55228475-.4477153-1-1-1h-14c-.5522847 0-1 .44771525-1 1v1h16z"/><path id="Shape" d="m41 5c0-.55228475-.4477153-1-1-1h-36c-.55228475 0-1 .44771525-1 1v1h38z"/><path id="Shape" d="m6.364 52h31.272c.2587827.0011456.4756767-.1953604.5-.453l3.714-39c.0132713-.1405443-.0334879-.2801495-.1287328-.3843475-.095245-.104198-.2300991-.1632777-.3712672-.1626525h-38.7c-.1411681-.0006252-.2760222.0584545-.37126717.1626525-.09524496.104198-.14200415.2438032-.12873283.3843475l3.714 39c.02432328.2576396.24121729.4541456.5.453zm1.636-35c0-1.1045695.8954305-2 2-2h20c1.1045695 0 2 .8954305 2 2v2h2c1.1045695 0 2 .8954305 2 2v20c-.0010349.2649991-.1062805.5189537-.293.707l-7 7c-.1880463.1867195-.4420009.2919651-.707.293h-14c-1.1045695 0-2-.8954305-2-2v-2h-2c-1.1045695 0-2-.8954305-2-2z"/><path id="Shape" d="m12 21c0-1.1045695.8954305-2 2-2h15.5c.2761424 0 .5-.2238576.5-.5v-1c0-.2761424-.2238576-.5-.5-.5h-19c-.2761424 0-.5.2238576-.5.5v25c0 .2761424.2238576.5.5.5h1c.2761424 0 .5-.2238576.5-.5z"/><path id="Shape" d="m14.5 47h12c.2761424 0 .5-.2238576.5-.5v-4.5c0-1.1045695.8954305-2 2-2h4.5c.2761424 0 .5-.2238576.5-.5v-18c0-.2761424-.2238576-.5-.5-.5h-19c-.2761424 0-.5.2238576-.5.5v25c0 .2761424.2238576.5.5.5zm3.5-22h12c.5522847 0 1 .4477153 1 1s-.4477153 1-1 1h-12c-.5522847 0-1-.4477153-1-1s.4477153-1 1-1zm0 4h12c.5522847 0 1 .4477153 1 1s-.4477153 1-1 1h-12c-.5522847 0-1-.4477153-1-1s.4477153-1 1-1zm0 4h12c.5522847 0 1 .4477153 1 1s-.4477153 1-1 1h-12c-.5522847 0-1-.4477153-1-1s.4477153-1 1-1zm0 4h8c.5522847 0 1 .4477153 1 1s-.4477153 1-1 1h-8c-.5522847 0-1-.4477153-1-1s.4477153-1 1-1zm0 4h6c.5522847 0 1 .4477153 1 1s-.4477153 1-1 1h-6c-.5522847 0-1-.4477153-1-1s.4477153-1 1-1z"/></g></g></svg>